<svg xmlns="http://www.w3.org/2000/svg" viewBox="0 0 320 620" width="320" height="620"
     role="img" aria-label="88Phone 연락처 화면 미리보기: 사진과 이름이 크게 표시된 목록입니다.">
  <defs>
    <clipPath id="screen3"><rect x="16" y="18" width="288" height="584" rx="26"/></clipPath>
    <filter id="shadow3" x="-30%" y="-10%" width="160%" height="130%">
      <feDropShadow dx="0" dy="10" stdDeviation="14" flood-color="#1A1A1A" flood-opacity="0.18"/>
    </filter>
  </defs>

  <rect x="4" y="6" width="312" height="608" rx="38" fill="#1A1A1A" filter="url(#shadow3)"/>
  <rect x="16" y="18" width="288" height="584" rx="26" fill="#FBF7F0"/>

  <g clip-path="url(#screen3)">
    <rect x="16" y="18" width="288" height="58" fill="#0B57A4"/>
    <text x="160" y="55" font-family="'Noto Sans KR',Arial,sans-serif" font-size="23" font-weight="800"
          fill="#FFFFFF" text-anchor="middle">가족 · 자주 거는 번호</text>

    <g font-family="'Noto Sans KR',Arial,sans-serif">
      <!-- 항목 1 -->
      <rect x="28" y="94" width="264" height="96" rx="16" fill="#FFFFFF" stroke="#DCD3C6" stroke-width="2.5"/>
      <circle cx="76" cy="142" r="32" fill="#E8F0FA"/>
      <circle cx="76" cy="132" r="12" fill="#0B57A4"/>
      <path d="M55 164c0-11 9.4-18 21-18s21 7 21 18z" fill="#0B57A4"/>
      <text x="122" y="136" font-size="25" font-weight="800" fill="#1A1A1A">큰아들</text>
      <text x="122" y="162" font-size="17" font-weight="500" fill="#4A4A4A">010-1234-5678</text>
      <circle cx="262" cy="142" r="22" fill="#15803D"/>
      <path d="M253 134c0-1.3 1-2.3 2.3-2.3h2.6c1 0 1.9.7 2.1 1.7l1 3.6c.3.9 0 1.9-.9 2.4l-1.3.9a12.7 12.7 0 0 0 5.4 5.4l.9-1.3c.5-.8 1.5-1.2 2.4-.9l3.6 1c1 .3 1.7 1.1 1.7 2.1v2.6c0 1.3-1 2.3-2.3 2.3-9.2 0-17.5-8.3-17.5-17.5z" fill="#FFFFFF"/>

      <!-- 항목 2 -->
      <rect x="28" y="202" width="264" height="96" rx="16" fill="#FFFFFF" stroke="#DCD3C6" stroke-width="2.5"/>
      <circle cx="76" cy="250" r="32" fill="#FDF0E7"/>
      <circle cx="76" cy="240" r="12" fill="#C2410C"/>
      <path d="M55 272c0-11 9.4-18 21-18s21 7 21 18z" fill="#C2410C"/>
      <text x="122" y="244" font-size="25" font-weight="800" fill="#1A1A1A">막내딸</text>
      <text x="122" y="270" font-size="17" font-weight="500" fill="#4A4A4A">010-2345-6789</text>
      <circle cx="262" cy="250" r="22" fill="#15803D"/>
      <path d="M253 242c0-1.3 1-2.3 2.3-2.3h2.6c1 0 1.9.7 2.1 1.7l1 3.6c.3.9 0 1.9-.9 2.4l-1.3.9a12.7 12.7 0 0 0 5.4 5.4l.9-1.3c.5-.8 1.5-1.2 2.4-.9l3.6 1c1 .3 1.7 1.1 1.7 2.1v2.6c0 1.3-1 2.3-2.3 2.3-9.2 0-17.5-8.3-17.5-17.5z" fill="#FFFFFF"/>

      <!-- 항목 3 -->
      <rect x="28" y="310" width="264" height="96" rx="16" fill="#FFFFFF" stroke="#DCD3C6" stroke-width="2.5"/>
      <circle cx="76" cy="358" r="32" fill="#F1E9FB"/>
      <circle cx="76" cy="348" r="12" fill="#6B21A8"/>
      <path d="M55 380c0-11 9.4-18 21-18s21 7 21 18z" fill="#6B21A8"/>
      <text x="122" y="352" font-size="25" font-weight="800" fill="#1A1A1A">손주</text>
      <text x="122" y="378" font-size="17" font-weight="500" fill="#4A4A4A">010-3456-7890</text>
      <circle cx="262" cy="358" r="22" fill="#15803D"/>
      <path d="M253 350c0-1.3 1-2.3 2.3-2.3h2.6c1 0 1.9.7 2.1 1.7l1 3.6c.3.9 0 1.9-.9 2.4l-1.3.9a12.7 12.7 0 0 0 5.4 5.4l.9-1.3c.5-.8 1.5-1.2 2.4-.9l3.6 1c1 .3 1.7 1.1 1.7 2.1v2.6c0 1.3-1 2.3-2.3 2.3-9.2 0-17.5-8.3-17.5-17.5z" fill="#FFFFFF"/>

      <!-- 항목 4 -->
      <rect x="28" y="418" width="264" height="96" rx="16" fill="#FFFFFF" stroke="#DCD3C6" stroke-width="2.5"/>
      <circle cx="76" cy="466" r="32" fill="#E9F7EE"/>
      <circle cx="76" cy="456" r="12" fill="#15803D"/>
      <path d="M55 488c0-11 9.4-18 21-18s21 7 21 18z" fill="#15803D"/>
      <text x="122" y="460" font-size="25" font-weight="800" fill="#1A1A1A">이웃 김씨</text>
      <text x="122" y="486" font-size="17" font-weight="500" fill="#4A4A4A">010-4567-8901</text>
      <circle cx="262" cy="466" r="22" fill="#15803D"/>
      <path d="M253 458c0-1.3 1-2.3 2.3-2.3h2.6c1 0 1.9.7 2.1 1.7l1 3.6c.3.9 0 1.9-.9 2.4l-1.3.9a12.7 12.7 0 0 0 5.4 5.4l.9-1.3c.5-.8 1.5-1.2 2.4-.9l3.6 1c1 .3 1.7 1.1 1.7 2.1v2.6c0 1.3-1 2.3-2.3 2.3-9.2 0-17.5-8.3-17.5-17.5z" fill="#FFFFFF"/>

      <!-- 안내 -->
      <rect x="28" y="530" width="264" height="52" rx="14" fill="#F4EDE2" stroke="#DCD3C6" stroke-width="2"/>
      <text x="160" y="562" font-size="17" font-weight="600" fill="#4A4A4A" text-anchor="middle">사진을 누르면 바로 전화가 걸립니다</text>
    </g>
  </g>

  <rect x="136" y="30" width="48" height="6" rx="3" fill="#1A1A1A" fill-opacity="0.25"/>
</svg>
